HIERARCHY
ROOT Hips
{
	OFFSET 0.000000 0.000000 0.000000
	CHANNELS 6 Xposition Yposition Zposition Yrotation Xrotation Zrotation
	JOINT Chest
	{
		OFFSET 0.000000 -0.009281 11.569106
		CHANNELS 3 Yrotation Xrotation Zrotation
		JOINT Chest2
		{
			OFFSET -0.000000 0.016865 9.269641
			CHANNELS 3 Yrotation Xrotation Zrotation
			JOINT Chest3
			{
				OFFSET -0.000000 0.000001 8.374491
				CHANNELS 3 Yrotation Xrotation Zrotation
				JOINT Chest4
				{
					OFFSET -0.000000 0.000001 8.374493
					CHANNELS 3 Yrotation Xrotation Zrotation
					JOINT Neck
					{
						OFFSET -0.000000 0.000002 12.152554
						CHANNELS 3 Yrotation Xrotation Zrotation
						JOINT Head
						{
							OFFSET -0.000000 0.040101 7.802319
							CHANNELS 3 Yrotation Xrotation Zrotation
							End Site
							{
								OFFSET -0.000000 0.020947 14.853096
							}
						}
					}
					JOINT RightCollar
					{
						OFFSET 2.894404 0.000001 6.791374
						CHANNELS 3 Yrotation Xrotation Zrotation
						JOINT RightShoulder
						{
							OFFSET 13.574684 0.000001 0.000000
							CHANNELS 3 Yrotation Xrotation Zrotation
							JOINT RightElbow
							{
								OFFSET 23.923903 0.000002 0.000000
								CHANNELS 3 Yrotation Xrotation Zrotation
								JOINT RightWrist
								{
									OFFSET 19.846718 0.012767 0.000000
									CHANNELS 3 Yrotation Xrotation Zrotation
									End Site
									{
										OFFSET 14.973145 0.000001 0.000000
									}
								}
							}
						}
					}
					JOINT LeftCollar
					{
						OFFSET -2.894404 0.000001 6.791374
						CHANNELS 3 Yrotation Xrotation Zrotation
						JOINT LeftShoulder
						{
							OFFSET -13.574684 -0.000001 0.000000
							CHANNELS 3 Yrotation Xrotation Zrotation
							JOINT LeftElbow
							{
								OFFSET -23.923903 -0.000002 0.000000
								CHANNELS 3 Yrotation Xrotation Zrotation
								JOINT LeftWrist
								{
									OFFSET -19.846718 0.012763 0.000000
									CHANNELS 3 Yrotation Xrotation Zrotation
									End Site
									{
										OFFSET -14.973145 -0.000001 0.000000
									}
								}
							}
						}
					}
				}
			}
		}
	}
	JOINT RightHip
	{
		OFFSET 9.469263 0.004643 0.045487
		CHANNELS 3 Yrotation Xrotation Zrotation
		JOINT RightKnee
		{
			OFFSET 0.000000 0.002661 -40.478676
			CHANNELS 3 Yrotation Xrotation Zrotation
			JOINT RightAnkle
			{
				OFFSET 0.000000 0.049106 -35.224068
				CHANNELS 3 Yrotation Xrotation Zrotation
				JOINT RightToe
				{
					OFFSET -0.000001 12.539529 -6.151390
					CHANNELS 3 Yrotation Xrotation Zrotation
					End Site
					{
						OFFSET -0.000001 5.044994 -1.291870
					}
				}
			}
		}
	}
	JOINT LeftHip
	{
		OFFSET -9.469263 0.004641 0.045487
		CHANNELS 3 Yrotation Xrotation Zrotation
		JOINT LeftKnee
		{
			OFFSET 0.000000 0.002661 -40.478676
			CHANNELS 3 Yrotation Xrotation Zrotation
			JOINT LeftAnkle
			{
				OFFSET 0.000000 0.049106 -35.224068
				CHANNELS 3 Yrotation Xrotation Zrotation
				JOINT LeftToe
				{
					OFFSET -0.000001 12.539529 -6.151390
					CHANNELS 3 Yrotation Xrotation Zrotation
					End Site
					{
						OFFSET -0.000001 5.044994 -1.291870
					}
				}
			}
		}
	}
}
MOTION
Frames: 11
Frame Time: 0.016667
-113.466591 45.531063 80.031502 -6.310267 -6.693670 -140.082781 0.674341 -2.550570 3.102286 0.436182 -0.956326 1.560186 0.436181 -0.956326 1.560191 0.329573 -0.716137 1.170795 -5.619455 -21.972749 4.135595 -9.000637 -4.540986 5.902413 11.158528 -3.993264 -2.153220 77.291746 -5.597736 29.288039 3.953025 -18.332795 33.728645 -26.944478 13.272654 35.412673 -7.242263 -0.022439 4.797565 -66.440713 26.053840 20.457279 17.700463 21.130795 17.164812 14.302459 2.955596 -10.321196 -11.785574 -2.590454 -12.281727 0.416539 -59.292442 3.418107 20.748206 -18.400361 5.319834 -21.684239 50.717460 -12.469011 -14.373027 2.032900 1.446879 -4.462531 -7.314178 8.554942 11.415796 -4.508950 5.203122 -0.580211 -0.083350 -0.352111 
-112.189621 44.669510 79.961639 -6.458561 -6.045854 -139.377633 0.925183 -2.627556 2.844565 0.404256 -0.987063 1.489603 0.404255 -0.987064 1.489602 0.305592 -0.739319 1.117828 -6.291175 -21.602000 4.450191 -10.121322 -3.841395 6.263987 10.958982 -3.989394 -2.162044 78.701982 -4.763508 28.209135 5.228271 -18.348337 34.116320 -27.279772 14.804263 36.836416 -7.798545 0.579857 4.331155 -65.773178 26.117603 19.774603 17.536432 20.990438 17.093930 13.554918 3.198692 -10.056381 -12.123529 0.847177 -12.166531 -3.340164 -62.692059 7.722768 21.671436 -17.964813 4.565910 -13.114675 36.115086 -6.147526 -15.211581 1.426589 -0.279076 -4.793733 -7.539302 9.736843 11.979187 -3.115043 5.699553 -0.710611 -0.398329 -0.529894 
-111.050331 43.930130 79.904358 -6.333001 -5.359507 -138.614946 1.146443 -2.490005 2.602757 0.408256 -1.024513 1.393431 0.408257 -1.024513 1.393434 0.308522 -0.767459 1.045734 -6.869152 -21.220436 4.731900 -11.082328 -3.123165 6.587868 10.956032 -3.917255 -2.022339 79.767423 -3.857848 26.873794 6.154260 -18.194321 34.050412 -27.834578 16.665373 38.304705 -8.067741 0.122753 3.916802 -66.329319 26.337923 17.606935 17.294737 20.787138 16.919313 13.290173 3.461766 -10.136031 -11.868428 4.712049 -11.020907 -5.285173 -65.334134 10.026655 21.721019 -16.699246 3.193903 -7.139912 22.631475 -2.562861 -16.070327 1.038271 -2.109600 -4.824309 -7.740899 10.700033 12.410972 -2.060990 6.201667 -0.801115 -0.464143 -0.608083 
-109.902306 43.199833 79.873688 -6.341250 -4.716670 -137.869909 1.211326 -2.397620 2.497650 0.437310 -1.014840 1.262916 0.437310 -1.014840 1.262919 0.330073 -0.760231 0.947891 -7.373930 -20.945713 4.987595 -11.920044 -2.603909 6.888567 10.968159 -3.981783 -1.906783 80.525506 -2.697659 25.345763 6.972807 -18.062980 33.435828 -28.568581 18.798405 39.824770 -8.236727 -0.899147 3.492624 -67.561574 26.494095 14.750335 16.915717 20.666360 16.610163 13.546465 3.620088 -10.668411 -11.370650 8.670396 -8.666628 -5.070852 -67.347639 10.010917 20.956241 -14.935530 1.593578 -2.766437 12.142691 -0.478129 -16.863619 0.450227 -3.008582 -4.736286 -7.775499 10.981774 12.641921 -1.210896 6.344435 -0.782032 -0.420323 -0.557516 
-108.828125 42.456593 79.857307 -6.367966 -4.038891 -136.899093 1.196091 -2.218472 2.294796 0.479448 -0.955964 1.092757 0.479448 -0.955965 1.092761 0.361288 -0.716119 0.820306 -7.794713 -20.801674 5.212557 -12.615978 -2.327736 7.164228 10.878209 -3.959319 -2.039563 81.074755 -1.385787 23.402791 7.789352 -17.961014 32.299155 -29.265762 21.001170 41.322843 -8.542651 -1.673177 3.067996 -68.740308 26.196892 12.088211 16.354569 20.680612 16.168318 14.114658 3.691560 -11.669978 -10.761236 12.593979 -5.764042 -3.468025 -68.525389 8.120596 19.625077 -13.014368 0.297402 -2.719976 11.287803 -0.683880 -17.532529 -0.270781 -3.283843 -4.757270 -7.690910 10.542441 12.833156 -0.528023 6.203337 -0.648873 -0.253104 -0.394391 
-107.791733 41.700531 79.848770 -6.327297 -3.403182 -135.653486 1.174367 -1.981880 1.961678 0.533270 -0.859663 0.893454 0.533271 -0.859662 0.893453 0.401202 -0.643970 0.670828 -8.105169 -20.777376 5.388124 -13.127398 -2.275074 7.389803 10.755478 -3.993347 -2.175243 81.404196 0.253891 21.223640 8.581543 -17.658143 30.678638 -29.851297 23.087986 42.698221 -9.000232 -2.011776 2.650123 -69.644400 25.397854 9.821987 15.583223 20.712515 15.548845 14.682470 3.726790 -13.000638 -10.099097 16.302045 -2.775387 -1.220144 -68.684567 5.098279 17.810068 -11.264244 -0.609466 -2.090645 11.831667 -0.393562 -18.071074 -0.982718 -3.345318 -4.647608 -7.741474 9.949416 12.879672 0.264386 5.706142 -0.491213 -0.126742 -0.227602 
-106.845688 40.933739 79.845901 -6.099521 -2.898103 -134.066477 1.239120 -1.707996 1.450562 0.601949 -0.748280 0.675908 0.601949 -0.748280 0.675913 0.452284 -0.560546 0.507659 -8.273943 -20.822936 5.486207 -13.405183 -2.354987 7.521201 10.642322 -3.979550 -2.236152 81.518970 2.077163 18.809523 9.244183 -16.887921 28.614716 -30.244887 25.031873 43.900081 -9.463140 -2.315208 2.186197 -70.534462 24.414841 7.532232 14.580963 20.630682 14.638429 15.046196 3.730438 -14.438909 -9.221414 19.626397 0.038659 0.618587 -67.761747 1.940282 15.785587 -9.770614 -1.133403 -0.957657 12.980023 0.163144 -18.411000 -1.694186 -3.526552 -4.335693 -7.860919 9.522153 12.808434 1.163183 4.922763 -0.360719 -0.069590 -0.097582 
-106.005577 40.162704 79.858261 -5.669564 -2.547283 -132.276435 1.382246 -1.382773 0.909618 0.679879 -0.632283 0.446092 0.679879 -0.632283 0.446096 0.510365 -0.473716 0.335268 -8.282795 -20.904755 5.500215 -13.417911 -2.505679 7.549598 10.592240 -3.739126 -2.237755 81.249130 3.731597 16.041509 9.662488 -15.390426 26.175522 -30.266672 26.999017 44.953255 -9.734935 -2.931885 1.819608 -71.683867 23.252155 4.825090 13.337193 20.441653 13.407170 15.113576 3.749480 -15.797369 -8.065493 22.559068 2.682500 1.537306 -65.719042 -0.617118 13.790625 -8.778555 -1.409164 0.485360 14.161274 0.732915 -18.481812 -2.254330 -3.749224 -3.862387 -8.222790 9.035143 12.644278 2.176812 4.114553 -0.308080 -0.085093 -0.055359 
-105.262955 39.373611 79.900452 -5.230571 -2.430282 -130.332604 1.541868 -1.173992 0.404905 0.754419 -0.525183 0.212087 0.754419 -0.525183 0.212085 0.565993 -0.393626 0.159709 -8.135333 -20.991835 5.429742 -13.171985 -2.669872 7.470799 10.635510 -3.414186 -2.198791 80.542260 5.119715 13.086838 9.832703 -13.141601 23.418115 -30.028787 28.916665 45.776870 -9.902808 -3.577150 1.448876 -72.794319 21.939216 2.046096 11.844808 20.210745 11.779448 14.876476 3.704808 -16.904981 -6.697724 24.747922 5.246836 1.613590 -62.434008 -2.249911 11.972550 -8.220266 -1.680122 2.002922 14.950622 1.152130 -18.345395 -2.864473 -4.245639 -3.345326 -8.764800 8.624213 12.435275 3.216308 3.482986 -0.311167 -0.101690 -0.042513 
-104.580750 38.574074 79.974998 -4.817013 -2.445716 -128.181491 1.651862 -1.002398 -0.122678 0.814822 -0.451339 -0.014910 0.814822 -0.451338 -0.014914 0.611103 -0.338524 -0.010580 -7.848828 -21.047706 5.276890 -12.697722 -2.780059 7.280876 10.696960 -3.170211 -2.184890 79.657334 6.290534 10.260558 9.722551 -10.262196 20.225070 -29.587010 30.482854 46.288250 -10.072331 -4.070106 0.991932 -73.655353 20.571068 -0.558261 10.053612 19.972496 9.659033 14.396714 3.531341 -17.683957 -5.332171 26.213122 7.519833 1.360203 -58.078888 -3.059902 10.253654 -7.958437 -2.266428 3.439413 15.091566 1.401003 -18.063226 -3.551101 -5.211104 -2.811569 -9.276410 8.488218 12.179851 4.098537 2.874268 -0.354982 -0.064847 -0.049027 
-103.901794 37.736248 80.074875 -4.509009 -2.586736 -125.944959 1.704022 -0.906843 -0.578227 0.860423 -0.405154 -0.216103 0.860423 -0.405154 -0.216103 0.645172 -0.304171 -0.161509 -7.459366 -21.064413 5.043834 -12.059797 -2.821317 6.972836 10.718746 -3.021338 -2.320731 78.731946 7.175608 7.660593 9.135822 -6.972223 16.427235 -28.836850 31.607295 46.493176 -10.276355 -4.625539 0.362283 -74.326706 19.357070 -3.136295 7.975910 19.657932 7.068560 13.709840 3.252261 -18.161000 -4.110903 26.930104 9.435758 1.101779 -52.736615 -3.261301 8.624282 -7.939299 -3.023443 4.555837 14.150224 1.423084 -17.643270 -4.428553 -6.324032 -2.362371 -9.693655 8.526082 11.946915 4.920837 2.239064 -0.418128 -0.013718 -0.061354 
